<svg xmlns="http://www.w3.org/2000/svg" viewBox="0 0 41.14 62.98"><defs><style>.cls-1{fill:#24ace5;}.cls-2{fill:#060909;}</style></defs><title>Aktiv 2</title><g id="Lag_2"><g id="Hand_Gestures"><polygon class="cls-1" points="41.14 2.64 25.61 2.64 25.61 0 17.99 4.14 25.61 8.45 25.61 5.64 41.14 5.64 41.14 2.64"/><path class="cls-2" d="M36.53,46.9c.62-2.71,2.65-13.33-1.53-21.1-1.55-2.87-3.38-4.34-5.43-4.37a5.56,5.56,0,0,0-3.89,1.8L17.45,9.78c-2.13-3.49-5.62-3.87-8-2.44S6,12,8.08,15.51c.34.56.67,1.08,1,1.58a4.74,4.74,0,0,0-1.15.53C6.17,18.67,5,20.74,5.59,22.67a5.54,5.54,0,0,0-1.48.63c-2,1.21-3.31,3.72-1.92,6L2.6,30l-.06,0,.46.75C1.3,31.85-.39,33.66.08,36c.59,2.85,8.66,17,15.57,20a6.07,6.07,0,0,0,4,.45l4,6.56,2.56-1.57-5.45-8.92-1.28.78c-.26.16-1,.63-2.6-.06C11.13,50.74,3.5,37.68,3,35.35c-.14-.68.68-1.46,1.55-2l4,6.48,2.56-1.57L7.3,32l.07,0L4.75,27.73c-.4-.65.3-1.48.93-1.87.47-.28,1.31-.64,1.82.15l.43.69-.08.05,3.78,6.17,2.56-1.56L11,26.1a2.24,2.24,0,0,0-.12-.29l0,0-.63-1-.17-.28,0,0-1.53-2.5c-.3-.48.25-1.32.94-1.74,1.07-.66,1.47,0,1.6.19l.26.43.56.92,0,0,.12.14,4.82,7.89,2.56-1.57L13.57,18.6l-.06,0-.09-.14-2.78-4.55c-1.24-2-.56-3.45.41-4s2.68-.47,3.84,1.44L24.35,26.8a41.88,41.88,0,0,1,1,4.58l3-.45A46.08,46.08,0,0,0,27.24,26a3.53,3.53,0,0,1,2.29-1.56c.86,0,1.86,1,2.83,2.79C36.52,35,33.5,46.65,33.47,46.77l-.16.62,4.3,7,2.56-1.56Z"/></g></g></svg>