<svg xmlns="http://www.w3.org/2000/svg" viewBox="0 0 41.13 62.98"><defs><style>.cls-1{fill:#24ace5;}.cls-2{fill:#060909;}</style></defs><title>Aktiv 1</title><g id="Lag_2"><g id="Hand_Gestures"><polygon class="cls-1" points="15.53 2.64 0 2.64 0 5.64 15.53 5.64 15.53 8.45 23.14 4.14 15.53 0 15.53 2.64"/><path class="cls-2" d="M38.13,30.75l.46-.75-.05,0,.4-.66a3.89,3.89,0,0,0,0-4,5.63,5.63,0,0,0-3.43-2.65c.61-1.93-.58-4-2.31-5.06a4.92,4.92,0,0,0-1.15-.53l1-1.58c2.14-3.49.91-6.75-1.4-8.17s-5.83-1-8,2.44L15.46,23.23a5.67,5.67,0,0,0-3.89-1.8c-2.06,0-3.88,1.5-5.43,4.37C2,33.57,4,44.19,4.61,46.9L1,52.86l2.56,1.56,4.3-7-.17-.62c0-.12-3-11.81,1.12-19.55,1-1.79,2-2.78,2.83-2.79s1.71.85,2.28,1.57a46.12,46.12,0,0,0-1.05,4.93l3,.46a41.46,41.46,0,0,1,1-4.58l9.46-15.47C27.41,9.44,29,9.25,30.08,9.9s1.66,2,.41,4l-2.78,4.55c0,.05-.05.1-.08.14l-.06,0-5.85,9.56,2.56,1.57,4.82-7.89a1.34,1.34,0,0,0,.11-.14l0,0,.62-1,.21-.35c.13-.21.52-.85,1.6-.19.69.42,1.23,1.26.93,1.74l-2.08,3.42,0,0-.25.41h0a1.61,1.61,0,0,0-.12.33l-3.21,5.23,2.56,1.56,3.78-6.17-.07-.05.27-.43c0-.08.09-.15.14-.23a.86.86,0,0,1,.85-.5,2.42,2.42,0,0,1,1.87,1.22.87.87,0,0,1,0,1L33.78,32l.06,0L30,38.23,32.6,39.8l4-6.48c.87.57,1.7,1.35,1.55,2C37.63,37.68,30,50.74,24.29,53.21c-1.57.69-2.34.22-2.59.06l-1.28-.78L15,61.41,17.52,63l4-6.56A6.14,6.14,0,0,0,25.48,56c6.92-3,15-17.16,15.57-20C41.53,33.66,39.84,31.85,38.13,30.75Z"/></g></g></svg>