<svg xmlns="http://www.w3.org/2000/svg" viewBox="0 0 39.35 62.29"><defs><style>.cls-1{fill:#24ace5;}.cls-2{fill:#060909;}</style></defs><title>Aktiv 3</title><g id="Lag_2"><g id="Hand_Gestures"><polygon class="cls-1" points="4.14 0 0 7.61 2.64 7.61 2.64 20.63 5.64 20.63 5.64 7.61 8.45 7.61 4.14 0"/><path class="cls-2" d="M33.46,24v-.89H33.4v-.78c0-3.3-3.79-4.67-6.36-3.87-.59-2.39-3.6-3.54-5.86-3V13.69c0-4.1-2.75-6.24-5.46-6.24s-5.53,2.14-5.53,6.24V29.45a5.51,5.51,0,0,0-4.25.49C4.2,31,3.41,33.25,3.59,36.51c.48,8.81,7.75,16.81,9.7,18.8v7h3V54l-.46-.44c-.09-.08-8.77-8.48-9.25-17.26-.11-2,.23-3.4,1-3.86a3.51,3.51,0,0,1,2.77.15A48.47,48.47,0,0,0,12,37.39l2.77-1.16a43.34,43.34,0,0,1-1.56-4.41V13.69c0-2.24,1.27-3.24,2.53-3.24s2.46.85,2.46,3.24v5.49h-.07V30.39h3V21h.07V19.39c0-.25,0-1,1.26-1,.81,0,1.71.42,1.71,1v4.53h.09v6.47h3V23.15h-.09v-.78a.87.87,0,0,1,.34-.78,1.86,1.86,0,0,1,1.14-.32c.73,0,1.77.34,1.77,1.1v5h.06v7.27h3V27.05c1,0,2.15.27,2.39.92.8,2.24,1.11,17.36-2.48,22.45-1,1.41-1.88,1.41-2.18,1.41h-1.5V62.29h3V54.6a6.11,6.11,0,0,0,3.14-2.45C40.16,46,39.66,29.7,38.67,27,37.88,24.75,35.49,24.09,33.46,24Z"/></g></g></svg>